<?xml version="1.0"?>
<svg xmlns="http://www.w3.org/2000/svg" width="50" height="50" viewBox="0 0 50 50">
    <path d="M 2 0 C 0.897 0 0 0.897 0 2 L 0 34 C 0 35.103 0.897 36 2 36 L 48 36 C 49.103 36 50 35.103 50 34 L 50 2 C 50 0.897 49.103 0 48 0 L 2 0 z M 6 5 L 44 5 C 44.552 5 45 5.448 45 6 L 45 29 C 45 29.552 44.552 30 44 30 L 6 30 C 5.448 30 5 29.552 5 29 L 5 6 C 5 5.448 5.448 5 6 5 z M 2 38 C 0.897 38 0 38.897 0 40 L 0 48 C 0 49.103 0.897 50 2 50 L 48 50 C 49.103 50 50 49.103 50 48 L 50 40 C 50 38.897 49.103 38 48 38 L 2 38 z M 42 42 C 43.104 42 44 42.895 44 44 C 44 45.105 43.104 46 42 46 C 40.896 46 40 45.105 40 44 C 40 42.895 40.896 42 42 42 z M 6 43 L 26 43 L 26 45 L 6 45 L 6 43 z"/>
</svg>
